<mxfile host="app.diagrams.net" modified="2023-10-11T02:42:56.394Z" agent="Mozilla/5.0 (Windows NT 10.0; Win64; x64) AppleWebKit/537.36 (KHTML, like Gecko) Chrome/117.0.0.0 Safari/537.36" etag="hvPY0bBFXW3kjAc2BuWi" version="22.0.4" type="device">
  <diagram name="Página-1" id="qD4yD4crRvVnp-cYP1Mm">
    <mxGraphModel dx="1877" dy="1763" grid="1" gridSize="10" guides="1" tooltips="1" connect="1" arrows="1" fold="1" page="1" pageScale="1" pageWidth="827" pageHeight="1169" math="0" shadow="0">
      <root>
        <mxCell id="0" />
        <mxCell id="1" parent="0" />
        <mxCell id="Mle7baNb7ymCqDp_AmaP-1" value="Usuário" style="shape=umlActor;verticalLabelPosition=bottom;verticalAlign=top;html=1;outlineConnect=0;fillColor=#d5e8d4;strokeColor=#82b366;" vertex="1" parent="1">
          <mxGeometry x="100" y="230" width="110" height="200" as="geometry" />
        </mxCell>
        <mxCell id="Mle7baNb7ymCqDp_AmaP-4" value="Visualizar despesas" style="ellipse;whiteSpace=wrap;html=1;fillColor=#ffe6cc;strokeColor=#d79b00;" vertex="1" parent="1">
          <mxGeometry x="333" y="260" width="80" height="60" as="geometry" />
        </mxCell>
        <mxCell id="Mle7baNb7ymCqDp_AmaP-7" value="Criação de conta" style="ellipse;whiteSpace=wrap;html=1;fillColor=#ffe6cc;strokeColor=#d79b00;" vertex="1" parent="1">
          <mxGeometry x="333" y="350" width="80" height="60" as="geometry" />
        </mxCell>
        <mxCell id="Mle7baNb7ymCqDp_AmaP-8" value="Login" style="ellipse;whiteSpace=wrap;html=1;fillColor=#ffe6cc;strokeColor=#d79b00;" vertex="1" parent="1">
          <mxGeometry x="310" y="430" width="90" height="70" as="geometry" />
        </mxCell>
        <mxCell id="Mle7baNb7ymCqDp_AmaP-9" value="Logout" style="ellipse;whiteSpace=wrap;html=1;fillColor=#ffe6cc;strokeColor=#d79b00;" vertex="1" parent="1">
          <mxGeometry x="230" y="490" width="80" height="70" as="geometry" />
        </mxCell>
        <mxCell id="Mle7baNb7ymCqDp_AmaP-10" value="CRUD de despesas" style="ellipse;whiteSpace=wrap;html=1;fillColor=#ffe6cc;strokeColor=#d79b00;" vertex="1" parent="1">
          <mxGeometry x="20" y="60" width="90" height="70" as="geometry" />
        </mxCell>
        <mxCell id="Mle7baNb7ymCqDp_AmaP-11" value="CRUD de receita" style="ellipse;whiteSpace=wrap;html=1;fillColor=#ffe6cc;strokeColor=#d79b00;" vertex="1" parent="1">
          <mxGeometry x="130" y="60" width="90" height="70" as="geometry" />
        </mxCell>
        <mxCell id="Mle7baNb7ymCqDp_AmaP-12" value="CRUD de cartão de crédito" style="ellipse;whiteSpace=wrap;html=1;fillColor=#ffe6cc;strokeColor=#d79b00;" vertex="1" parent="1">
          <mxGeometry x="240" y="90" width="90" height="70" as="geometry" />
        </mxCell>
        <mxCell id="Mle7baNb7ymCqDp_AmaP-13" value="CRUD de cartão de débito" style="ellipse;whiteSpace=wrap;html=1;fillColor=#ffe6cc;strokeColor=#d79b00;" vertex="1" parent="1">
          <mxGeometry x="310" y="170" width="90" height="70" as="geometry" />
        </mxCell>
        <mxCell id="Mle7baNb7ymCqDp_AmaP-15" value="Remoção de conta" style="ellipse;whiteSpace=wrap;html=1;fillColor=#ffe6cc;strokeColor=#d79b00;" vertex="1" parent="1">
          <mxGeometry x="20" y="500" width="90" height="80" as="geometry" />
        </mxCell>
        <mxCell id="Mle7baNb7ymCqDp_AmaP-16" value="Extends" style="endArrow=block;endSize=16;endFill=0;html=1;rounded=0;exitX=0.629;exitY=-0.033;exitDx=0;exitDy=0;exitPerimeter=0;entryX=0.076;entryY=0.727;entryDx=0;entryDy=0;entryPerimeter=0;" edge="1" parent="1" source="Mle7baNb7ymCqDp_AmaP-10" target="Mle7baNb7ymCqDp_AmaP-17">
          <mxGeometry width="160" relative="1" as="geometry">
            <mxPoint x="70" y="30" as="sourcePoint" />
            <mxPoint x="160" y="-20" as="targetPoint" />
          </mxGeometry>
        </mxCell>
        <mxCell id="Mle7baNb7ymCqDp_AmaP-17" value="Verificar limite do cartão, e dia de fechamento" style="ellipse;whiteSpace=wrap;html=1;fillColor=#fff2cc;strokeColor=#d6b656;" vertex="1" parent="1">
          <mxGeometry x="160" y="-70" width="120" height="80" as="geometry" />
        </mxCell>
        <mxCell id="Mle7baNb7ymCqDp_AmaP-18" value="Extends" style="endArrow=block;endSize=16;endFill=0;html=1;rounded=0;entryX=0.002;entryY=0.7;entryDx=0;entryDy=0;entryPerimeter=0;" edge="1" parent="1" target="Mle7baNb7ymCqDp_AmaP-19">
          <mxGeometry width="160" relative="1" as="geometry">
            <mxPoint x="260" y="-60" as="sourcePoint" />
            <mxPoint x="360" y="-60" as="targetPoint" />
          </mxGeometry>
        </mxCell>
        <mxCell id="Mle7baNb7ymCqDp_AmaP-19" value="Notificar usuário" style="ellipse;whiteSpace=wrap;html=1;fillColor=#e1d5e7;strokeColor=#9673a6;" vertex="1" parent="1">
          <mxGeometry x="350" y="-120" width="90" height="70" as="geometry" />
        </mxCell>
        <mxCell id="Mle7baNb7ymCqDp_AmaP-20" value="Extends" style="endArrow=block;endSize=16;endFill=0;html=1;rounded=0;entryX=0.415;entryY=0.96;entryDx=0;entryDy=0;entryPerimeter=0;exitX=0.219;exitY=0.108;exitDx=0;exitDy=0;exitPerimeter=0;" edge="1" parent="1" source="Mle7baNb7ymCqDp_AmaP-10" target="Mle7baNb7ymCqDp_AmaP-21">
          <mxGeometry width="160" relative="1" as="geometry">
            <mxPoint x="40" y="60" as="sourcePoint" />
            <mxPoint x="33" y="-30" as="targetPoint" />
          </mxGeometry>
        </mxCell>
        <mxCell id="Mle7baNb7ymCqDp_AmaP-21" value="Verificar se existe saldo" style="ellipse;whiteSpace=wrap;html=1;fillColor=#fff2cc;strokeColor=#d6b656;" vertex="1" parent="1">
          <mxGeometry x="-10" y="-130" width="120" height="65" as="geometry" />
        </mxCell>
        <mxCell id="Mle7baNb7ymCqDp_AmaP-23" value="Extends" style="endArrow=block;endSize=16;endFill=0;html=1;rounded=0;entryX=0.021;entryY=0.3;entryDx=0;entryDy=0;entryPerimeter=0;" edge="1" parent="1" source="Mle7baNb7ymCqDp_AmaP-21" target="Mle7baNb7ymCqDp_AmaP-19">
          <mxGeometry width="160" relative="1" as="geometry">
            <mxPoint x="110" y="-110" as="sourcePoint" />
            <mxPoint x="270" y="-110" as="targetPoint" />
          </mxGeometry>
        </mxCell>
        <mxCell id="Mle7baNb7ymCqDp_AmaP-24" value="Filtrar itens" style="ellipse;whiteSpace=wrap;html=1;fillColor=#fff2cc;strokeColor=#d6b656;" vertex="1" parent="1">
          <mxGeometry x="345" y="-20" width="100" height="90" as="geometry" />
        </mxCell>
        <mxCell id="Mle7baNb7ymCqDp_AmaP-25" value="Extends" style="endArrow=block;endSize=16;endFill=0;html=1;rounded=0;exitX=1;exitY=0.279;exitDx=0;exitDy=0;entryX=0.004;entryY=0.623;entryDx=0;entryDy=0;entryPerimeter=0;exitPerimeter=0;" edge="1" parent="1" source="Mle7baNb7ymCqDp_AmaP-11" target="Mle7baNb7ymCqDp_AmaP-24">
          <mxGeometry width="160" relative="1" as="geometry">
            <mxPoint x="230" y="50" as="sourcePoint" />
            <mxPoint x="390" y="50" as="targetPoint" />
          </mxGeometry>
        </mxCell>
        <mxCell id="Mle7baNb7ymCqDp_AmaP-26" value="Extends" style="endArrow=block;endSize=16;endFill=0;html=1;rounded=0;exitX=1;exitY=0;exitDx=0;exitDy=0;entryX=0.013;entryY=0.219;entryDx=0;entryDy=0;entryPerimeter=0;" edge="1" parent="1" source="Mle7baNb7ymCqDp_AmaP-10" target="Mle7baNb7ymCqDp_AmaP-24">
          <mxGeometry width="160" relative="1" as="geometry">
            <mxPoint x="200" y="30" as="sourcePoint" />
            <mxPoint x="360" y="30" as="targetPoint" />
          </mxGeometry>
        </mxCell>
        <mxCell id="Mle7baNb7ymCqDp_AmaP-27" value="Extends" style="endArrow=block;endSize=16;endFill=0;html=1;rounded=0;" edge="1" parent="1" source="Mle7baNb7ymCqDp_AmaP-12" target="Mle7baNb7ymCqDp_AmaP-24">
          <mxGeometry width="160" relative="1" as="geometry">
            <mxPoint x="360" y="90" as="sourcePoint" />
            <mxPoint x="520" y="90" as="targetPoint" />
          </mxGeometry>
        </mxCell>
        <mxCell id="Mle7baNb7ymCqDp_AmaP-28" value="Extends" style="endArrow=block;endSize=16;endFill=0;html=1;rounded=0;exitX=0.656;exitY=-0.036;exitDx=0;exitDy=0;entryX=0.5;entryY=1;entryDx=0;entryDy=0;exitPerimeter=0;" edge="1" parent="1" source="Mle7baNb7ymCqDp_AmaP-13" target="Mle7baNb7ymCqDp_AmaP-24">
          <mxGeometry width="160" relative="1" as="geometry">
            <mxPoint x="400" y="170" as="sourcePoint" />
            <mxPoint x="560" y="170" as="targetPoint" />
          </mxGeometry>
        </mxCell>
        <mxCell id="Mle7baNb7ymCqDp_AmaP-29" value="Include" style="endArrow=block;endSize=16;endFill=0;html=1;rounded=0;exitX=0;exitY=1;exitDx=0;exitDy=0;entryX=0.604;entryY=-0.018;entryDx=0;entryDy=0;entryPerimeter=0;" edge="1" parent="1" source="Mle7baNb7ymCqDp_AmaP-10" target="Mle7baNb7ymCqDp_AmaP-30">
          <mxGeometry width="160" relative="1" as="geometry">
            <mxPoint x="-10" y="240" as="sourcePoint" />
            <mxPoint y="190" as="targetPoint" />
          </mxGeometry>
        </mxCell>
        <mxCell id="Mle7baNb7ymCqDp_AmaP-30" value="Selecionar categoria" style="ellipse;whiteSpace=wrap;html=1;fillColor=#f8cecc;strokeColor=#b85450;" vertex="1" parent="1">
          <mxGeometry x="-80" y="200" width="120" height="80" as="geometry" />
        </mxCell>
        <mxCell id="Mle7baNb7ymCqDp_AmaP-31" value="" style="endArrow=classic;html=1;rounded=0;entryX=0.667;entryY=1;entryDx=0;entryDy=0;entryPerimeter=0;exitX=0.25;exitY=0.1;exitDx=0;exitDy=0;exitPerimeter=0;" edge="1" parent="1" source="Mle7baNb7ymCqDp_AmaP-1" target="Mle7baNb7ymCqDp_AmaP-10">
          <mxGeometry width="50" height="50" relative="1" as="geometry">
            <mxPoint x="90" y="220" as="sourcePoint" />
            <mxPoint x="140" y="170" as="targetPoint" />
          </mxGeometry>
        </mxCell>
        <mxCell id="Mle7baNb7ymCqDp_AmaP-32" value="" style="endArrow=classic;html=1;rounded=0;entryX=0.5;entryY=1;entryDx=0;entryDy=0;" edge="1" parent="1" source="Mle7baNb7ymCqDp_AmaP-1" target="Mle7baNb7ymCqDp_AmaP-11">
          <mxGeometry width="50" height="50" relative="1" as="geometry">
            <mxPoint x="200" y="220" as="sourcePoint" />
            <mxPoint x="250" y="170" as="targetPoint" />
          </mxGeometry>
        </mxCell>
        <mxCell id="Mle7baNb7ymCqDp_AmaP-33" value="" style="endArrow=classic;html=1;rounded=0;exitX=0.75;exitY=0.1;exitDx=0;exitDy=0;exitPerimeter=0;entryX=0.262;entryY=0.954;entryDx=0;entryDy=0;entryPerimeter=0;" edge="1" parent="1" source="Mle7baNb7ymCqDp_AmaP-1" target="Mle7baNb7ymCqDp_AmaP-12">
          <mxGeometry width="50" height="50" relative="1" as="geometry">
            <mxPoint x="210" y="230" as="sourcePoint" />
            <mxPoint x="260" y="180" as="targetPoint" />
          </mxGeometry>
        </mxCell>
        <mxCell id="Mle7baNb7ymCqDp_AmaP-34" value="" style="endArrow=classic;html=1;rounded=0;exitX=1;exitY=0.3333333333333333;exitDx=0;exitDy=0;exitPerimeter=0;entryX=0.057;entryY=0.776;entryDx=0;entryDy=0;entryPerimeter=0;" edge="1" parent="1" source="Mle7baNb7ymCqDp_AmaP-1" target="Mle7baNb7ymCqDp_AmaP-13">
          <mxGeometry width="50" height="50" relative="1" as="geometry">
            <mxPoint x="230" y="290" as="sourcePoint" />
            <mxPoint x="280" y="240" as="targetPoint" />
          </mxGeometry>
        </mxCell>
        <mxCell id="Mle7baNb7ymCqDp_AmaP-35" value="" style="endArrow=classic;html=1;rounded=0;entryX=0.065;entryY=0.739;entryDx=0;entryDy=0;entryPerimeter=0;" edge="1" parent="1" source="Mle7baNb7ymCqDp_AmaP-1" target="Mle7baNb7ymCqDp_AmaP-4">
          <mxGeometry width="50" height="50" relative="1" as="geometry">
            <mxPoint x="240" y="380" as="sourcePoint" />
            <mxPoint x="290" y="330" as="targetPoint" />
          </mxGeometry>
        </mxCell>
        <mxCell id="Mle7baNb7ymCqDp_AmaP-36" value="" style="endArrow=classic;html=1;rounded=0;entryX=0;entryY=0.5;entryDx=0;entryDy=0;" edge="1" parent="1" source="Mle7baNb7ymCqDp_AmaP-1" target="Mle7baNb7ymCqDp_AmaP-7">
          <mxGeometry width="50" height="50" relative="1" as="geometry">
            <mxPoint x="230" y="430" as="sourcePoint" />
            <mxPoint x="280" y="380" as="targetPoint" />
          </mxGeometry>
        </mxCell>
        <mxCell id="Mle7baNb7ymCqDp_AmaP-37" value="" style="endArrow=classic;html=1;rounded=0;entryX=-0.002;entryY=0.325;entryDx=0;entryDy=0;entryPerimeter=0;" edge="1" parent="1" source="Mle7baNb7ymCqDp_AmaP-1" target="Mle7baNb7ymCqDp_AmaP-8">
          <mxGeometry width="50" height="50" relative="1" as="geometry">
            <mxPoint x="220" y="430" as="sourcePoint" />
            <mxPoint x="290" y="430" as="targetPoint" />
          </mxGeometry>
        </mxCell>
        <mxCell id="Mle7baNb7ymCqDp_AmaP-38" value="" style="endArrow=classic;html=1;rounded=0;entryX=0;entryY=0;entryDx=0;entryDy=0;" edge="1" parent="1" source="Mle7baNb7ymCqDp_AmaP-1" target="Mle7baNb7ymCqDp_AmaP-9">
          <mxGeometry width="50" height="50" relative="1" as="geometry">
            <mxPoint x="180" y="440" as="sourcePoint" />
            <mxPoint x="270" y="440" as="targetPoint" />
          </mxGeometry>
        </mxCell>
        <mxCell id="Mle7baNb7ymCqDp_AmaP-41" value="" style="endArrow=classic;html=1;rounded=0;entryX=0.778;entryY=0;entryDx=0;entryDy=0;entryPerimeter=0;" edge="1" parent="1" source="Mle7baNb7ymCqDp_AmaP-1" target="Mle7baNb7ymCqDp_AmaP-15">
          <mxGeometry width="50" height="50" relative="1" as="geometry">
            <mxPoint x="80" y="470" as="sourcePoint" />
            <mxPoint x="130" y="420" as="targetPoint" />
          </mxGeometry>
        </mxCell>
        <mxCell id="Mle7baNb7ymCqDp_AmaP-45" value="Edição de conta" style="ellipse;whiteSpace=wrap;html=1;fillColor=#ffe6cc;strokeColor=#d79b00;" vertex="1" parent="1">
          <mxGeometry x="130" y="510" width="90" height="80" as="geometry" />
        </mxCell>
        <mxCell id="Mle7baNb7ymCqDp_AmaP-46" value="" style="endArrow=classic;html=1;rounded=0;entryX=0.433;entryY=-0.043;entryDx=0;entryDy=0;entryPerimeter=0;" edge="1" parent="1" source="Mle7baNb7ymCqDp_AmaP-1" target="Mle7baNb7ymCqDp_AmaP-45">
          <mxGeometry width="50" height="50" relative="1" as="geometry">
            <mxPoint x="150" y="470" as="sourcePoint" />
            <mxPoint x="280" y="550" as="targetPoint" />
          </mxGeometry>
        </mxCell>
      </root>
    </mxGraphModel>
  </diagram>
</mxfile>
